<svg width="200" height="200" viewBox="0 0 200 200" xmlns="http://www.w3.org/2000/svg">
  <rect x="50" y="50" width="100" height="100" 
        fill="black"
        transform="rotate(45,100,100)"  />
        <path d="M 52 91 Q 62 46 72 91" stroke="white" stroke-width="12" fill="none" transform="rotate(180,70,80)"/>
        <path d="M 113 91 Q 123 46 133 91" stroke="white" stroke-width="12" fill="none" transform="rotate(180,122,79.75)" />
  <g fill="#4a4ae2" transform="translate(28,45) scale(0.8)">
    <rect x="80" y="70" width="6" height="60" rx="3" />
    <rect x="90" y="82" width="6" height="35" rx="3" />
    <rect x="100" y="90" width="6" height="20" rx="3" />
    <rect x="110" y="82" width="6" height="35" rx="3" />
    <rect x="120" y="95" width="6" height="10" rx="3" />
    <rect x="70" y="88" width="6" height="25" rx="3" />
    <rect x="60" y="95" width="6" height="10" rx="3" />
  </g>
</svg>